<mxfile host="app.diagrams.net" agent="Mozilla/5.0 (Windows NT 10.0; Win64; x64) AppleWebKit/537.36 (KHTML, like Gecko) Chrome/128.0.0.0 Safari/537.36" version="24.7.12">
  <diagram name="Página-1" id="xbAdERQiDdNSYcOWPB0R">
    <mxGraphModel dx="3875" dy="1904" grid="1" gridSize="10" guides="1" tooltips="1" connect="1" arrows="1" fold="1" page="1" pageScale="1" pageWidth="827" pageHeight="1169" math="0" shadow="0">
      <root>
        <mxCell id="0" />
        <mxCell id="1" parent="0" />
        <mxCell id="lB8DPW3cB8pryzDxTjk3-3" value="" style="edgeStyle=orthogonalEdgeStyle;rounded=0;orthogonalLoop=1;jettySize=auto;html=1;exitX=0.5;exitY=1;exitDx=0;exitDy=0;" edge="1" parent="1" source="lB8DPW3cB8pryzDxTjk3-1" target="lB8DPW3cB8pryzDxTjk3-2">
          <mxGeometry relative="1" as="geometry">
            <mxPoint x="360" y="150" as="sourcePoint" />
          </mxGeometry>
        </mxCell>
        <mxCell id="lB8DPW3cB8pryzDxTjk3-11" value="" style="edgeStyle=orthogonalEdgeStyle;rounded=0;orthogonalLoop=1;jettySize=auto;html=1;shadow=1;" edge="1" parent="1" source="lB8DPW3cB8pryzDxTjk3-2" target="lB8DPW3cB8pryzDxTjk3-10">
          <mxGeometry relative="1" as="geometry" />
        </mxCell>
        <mxCell id="lB8DPW3cB8pryzDxTjk3-1" value="&lt;h1&gt;&lt;font face=&quot;Tahoma&quot; style=&quot;font-size: 18px;&quot;&gt;BODEGAS&amp;nbsp; ID &lt;br&gt;&lt;/font&gt;&lt;font face=&quot;Tahoma&quot; style=&quot;&quot;&gt;&lt;font style=&quot;font-size: 14px;&quot;&gt;(Instalación Domiciliara)&lt;/font&gt;&lt;br&gt;&lt;span style=&quot;font-size: 18px;&quot;&gt;FLUJO DIRECTO&lt;/span&gt;&lt;/font&gt;&lt;/h1&gt;" style="text;html=1;align=center;verticalAlign=middle;whiteSpace=wrap;rounded=0;dashed=1;" vertex="1" parent="1">
          <mxGeometry x="-40" y="120" width="247.5" height="75" as="geometry" />
        </mxCell>
        <mxCell id="lB8DPW3cB8pryzDxTjk3-2" value="&lt;h2&gt;M01&amp;nbsp;&lt;br&gt;&lt;span style=&quot;background-color: initial; font-size: 12px;&quot;&gt;CENTRO LOGISTICO OPERACIONAL&lt;/span&gt;&lt;/h2&gt;" style="whiteSpace=wrap;html=1;shadow=1;" vertex="1" parent="1">
          <mxGeometry x="-5" y="280" width="180" height="90" as="geometry" />
        </mxCell>
        <mxCell id="lB8DPW3cB8pryzDxTjk3-37" value="" style="edgeStyle=orthogonalEdgeStyle;rounded=0;orthogonalLoop=1;jettySize=auto;html=1;shadow=1;" edge="1" parent="1" source="lB8DPW3cB8pryzDxTjk3-10" target="lB8DPW3cB8pryzDxTjk3-36">
          <mxGeometry relative="1" as="geometry" />
        </mxCell>
        <mxCell id="lB8DPW3cB8pryzDxTjk3-10" value="&lt;h2&gt;EPS&lt;br&gt;&lt;span style=&quot;background-color: initial; font-size: 12px;&quot;&gt;&lt;span style=&quot;font-weight: 400;&quot;&gt;Ó&lt;br&gt;&lt;/span&gt;ALIADO COMERCIAL&lt;/span&gt;&lt;/h2&gt;" style="whiteSpace=wrap;html=1;shadow=1;" vertex="1" parent="1">
          <mxGeometry x="250" y="280" width="180" height="90" as="geometry" />
        </mxCell>
        <mxCell id="lB8DPW3cB8pryzDxTjk3-33" value="" style="edgeStyle=orthogonalEdgeStyle;rounded=0;orthogonalLoop=1;jettySize=auto;html=1;shadow=1;" edge="1" parent="1" source="lB8DPW3cB8pryzDxTjk3-12" target="lB8DPW3cB8pryzDxTjk3-10">
          <mxGeometry relative="1" as="geometry" />
        </mxCell>
        <mxCell id="lB8DPW3cB8pryzDxTjk3-47" value="" style="edgeStyle=orthogonalEdgeStyle;rounded=0;orthogonalLoop=1;jettySize=auto;html=1;shadow=1;" edge="1" parent="1" source="lB8DPW3cB8pryzDxTjk3-12" target="lB8DPW3cB8pryzDxTjk3-43">
          <mxGeometry relative="1" as="geometry" />
        </mxCell>
        <mxCell id="lB8DPW3cB8pryzDxTjk3-12" value="TECNICOS 1&amp;nbsp;" style="whiteSpace=wrap;html=1;shadow=1;rounded=0;fontStyle=1" vertex="1" parent="1">
          <mxGeometry x="520" y="250" width="120" height="30" as="geometry" />
        </mxCell>
        <mxCell id="lB8DPW3cB8pryzDxTjk3-32" value="" style="edgeStyle=orthogonalEdgeStyle;rounded=0;orthogonalLoop=1;jettySize=auto;html=1;shadow=1;" edge="1" parent="1" source="lB8DPW3cB8pryzDxTjk3-14" target="lB8DPW3cB8pryzDxTjk3-10">
          <mxGeometry relative="1" as="geometry" />
        </mxCell>
        <mxCell id="lB8DPW3cB8pryzDxTjk3-44" value="" style="edgeStyle=orthogonalEdgeStyle;rounded=0;orthogonalLoop=1;jettySize=auto;html=1;shadow=1;" edge="1" parent="1" source="lB8DPW3cB8pryzDxTjk3-14" target="lB8DPW3cB8pryzDxTjk3-43">
          <mxGeometry relative="1" as="geometry" />
        </mxCell>
        <mxCell id="lB8DPW3cB8pryzDxTjk3-14" value="TECNICOS 2" style="whiteSpace=wrap;html=1;shadow=1;rounded=0;fontStyle=1" vertex="1" parent="1">
          <mxGeometry x="520" y="290" width="120" height="30" as="geometry" />
        </mxCell>
        <mxCell id="lB8DPW3cB8pryzDxTjk3-35" value="" style="edgeStyle=orthogonalEdgeStyle;rounded=0;orthogonalLoop=1;jettySize=auto;html=1;shadow=1;" edge="1" parent="1" source="lB8DPW3cB8pryzDxTjk3-15" target="lB8DPW3cB8pryzDxTjk3-10">
          <mxGeometry relative="1" as="geometry" />
        </mxCell>
        <mxCell id="lB8DPW3cB8pryzDxTjk3-45" value="" style="edgeStyle=orthogonalEdgeStyle;rounded=0;orthogonalLoop=1;jettySize=auto;html=1;shadow=1;" edge="1" parent="1" source="lB8DPW3cB8pryzDxTjk3-15" target="lB8DPW3cB8pryzDxTjk3-43">
          <mxGeometry relative="1" as="geometry" />
        </mxCell>
        <mxCell id="lB8DPW3cB8pryzDxTjk3-15" value="TECNICOS 3" style="whiteSpace=wrap;html=1;shadow=1;rounded=0;fontStyle=1" vertex="1" parent="1">
          <mxGeometry x="520" y="330" width="120" height="30" as="geometry" />
        </mxCell>
        <mxCell id="lB8DPW3cB8pryzDxTjk3-34" value="" style="edgeStyle=orthogonalEdgeStyle;rounded=0;orthogonalLoop=1;jettySize=auto;html=1;shadow=1;" edge="1" parent="1" source="lB8DPW3cB8pryzDxTjk3-17" target="lB8DPW3cB8pryzDxTjk3-10">
          <mxGeometry relative="1" as="geometry" />
        </mxCell>
        <mxCell id="lB8DPW3cB8pryzDxTjk3-46" value="" style="edgeStyle=orthogonalEdgeStyle;rounded=0;orthogonalLoop=1;jettySize=auto;html=1;shadow=1;" edge="1" parent="1" source="lB8DPW3cB8pryzDxTjk3-17" target="lB8DPW3cB8pryzDxTjk3-43">
          <mxGeometry relative="1" as="geometry" />
        </mxCell>
        <mxCell id="lB8DPW3cB8pryzDxTjk3-17" value="TECNICOS 4" style="whiteSpace=wrap;html=1;shadow=1;rounded=0;fontStyle=1" vertex="1" parent="1">
          <mxGeometry x="520" y="370" width="120" height="30" as="geometry" />
        </mxCell>
        <mxCell id="lB8DPW3cB8pryzDxTjk3-25" value="" style="edgeStyle=orthogonalEdgeStyle;rounded=0;orthogonalLoop=1;jettySize=auto;html=1;" edge="1" parent="1" source="lB8DPW3cB8pryzDxTjk3-23" target="lB8DPW3cB8pryzDxTjk3-12">
          <mxGeometry relative="1" as="geometry" />
        </mxCell>
        <mxCell id="lB8DPW3cB8pryzDxTjk3-23" value="SUB-INVENTARIO" style="whiteSpace=wrap;html=1;shadow=1;rounded=0;fontStyle=1" vertex="1" parent="1">
          <mxGeometry x="520" y="165" width="120" height="30" as="geometry" />
        </mxCell>
        <mxCell id="lB8DPW3cB8pryzDxTjk3-39" value="" style="edgeStyle=orthogonalEdgeStyle;rounded=0;orthogonalLoop=1;jettySize=auto;html=1;shadow=1;" edge="1" parent="1" source="lB8DPW3cB8pryzDxTjk3-36" target="lB8DPW3cB8pryzDxTjk3-38">
          <mxGeometry relative="1" as="geometry" />
        </mxCell>
        <mxCell id="lB8DPW3cB8pryzDxTjk3-36" value="DISPONIBLES" style="whiteSpace=wrap;html=1;shadow=1;rounded=0;fontStyle=1" vertex="1" parent="1">
          <mxGeometry x="280" y="400" width="120" height="40" as="geometry" />
        </mxCell>
        <mxCell id="lB8DPW3cB8pryzDxTjk3-49" value="" style="edgeStyle=orthogonalEdgeStyle;rounded=0;orthogonalLoop=1;jettySize=auto;html=1;" edge="1" parent="1" source="lB8DPW3cB8pryzDxTjk3-38" target="lB8DPW3cB8pryzDxTjk3-48">
          <mxGeometry relative="1" as="geometry" />
        </mxCell>
        <mxCell id="lB8DPW3cB8pryzDxTjk3-56" value="" style="edgeStyle=orthogonalEdgeStyle;rounded=0;orthogonalLoop=1;jettySize=auto;html=1;" edge="1" parent="1" source="lB8DPW3cB8pryzDxTjk3-38" target="lB8DPW3cB8pryzDxTjk3-55">
          <mxGeometry relative="1" as="geometry" />
        </mxCell>
        <mxCell id="lB8DPW3cB8pryzDxTjk3-38" value="ANALISIS&amp;nbsp;" style="whiteSpace=wrap;html=1;shadow=1;fontStyle=1" vertex="1" parent="1">
          <mxGeometry x="280" y="460" width="120" height="40" as="geometry" />
        </mxCell>
        <mxCell id="lB8DPW3cB8pryzDxTjk3-43" value="&lt;h3&gt;LOCALIZADORES&lt;/h3&gt;" style="whiteSpace=wrap;html=1;shadow=1;" vertex="1" parent="1">
          <mxGeometry x="740" y="280" width="180" height="90" as="geometry" />
        </mxCell>
        <mxCell id="lB8DPW3cB8pryzDxTjk3-48" value="CONSUMOS" style="whiteSpace=wrap;html=1;shadow=1;fontStyle=1" vertex="1" parent="1">
          <mxGeometry x="280" y="520" width="120" height="40" as="geometry" />
        </mxCell>
        <mxCell id="lB8DPW3cB8pryzDxTjk3-51" value="" style="endArrow=classic;html=1;rounded=0;" edge="1" parent="1">
          <mxGeometry width="50" height="50" relative="1" as="geometry">
            <mxPoint x="640" y="180" as="sourcePoint" />
            <mxPoint x="700" y="150" as="targetPoint" />
          </mxGeometry>
        </mxCell>
        <mxCell id="lB8DPW3cB8pryzDxTjk3-52" value="No necesariamente los SubInventarios &lt;br&gt;tienen que ser TECNICOS, en bodega&lt;div&gt;sub-inventarios ID (contratista, EPS, aliados)&lt;/div&gt;" style="text;html=1;align=center;verticalAlign=middle;resizable=0;points=[];autosize=1;fillColor=#f8cecc;strokeColor=#b85450;" vertex="1" parent="1">
          <mxGeometry x="700" y="90" width="260" height="60" as="geometry" />
        </mxCell>
        <mxCell id="lB8DPW3cB8pryzDxTjk3-54" style="edgeStyle=orthogonalEdgeStyle;rounded=0;orthogonalLoop=1;jettySize=auto;html=1;exitX=0.5;exitY=1;exitDx=0;exitDy=0;" edge="1" parent="1" source="lB8DPW3cB8pryzDxTjk3-38" target="lB8DPW3cB8pryzDxTjk3-38">
          <mxGeometry relative="1" as="geometry" />
        </mxCell>
        <mxCell id="lB8DPW3cB8pryzDxTjk3-55" value="CONCURRENTE 10 + 20 MINUTOS" style="whiteSpace=wrap;html=1;shadow=1;fontStyle=1;fillColor=#fff2cc;strokeColor=#d6b656;" vertex="1" parent="1">
          <mxGeometry x="490" y="460" width="230" height="40" as="geometry" />
        </mxCell>
        <mxCell id="lB8DPW3cB8pryzDxTjk3-63" value="" style="edgeStyle=orthogonalEdgeStyle;rounded=0;orthogonalLoop=1;jettySize=auto;html=1;shadow=1;" edge="1" parent="1" source="lB8DPW3cB8pryzDxTjk3-60" target="lB8DPW3cB8pryzDxTjk3-62">
          <mxGeometry relative="1" as="geometry" />
        </mxCell>
        <mxCell id="lB8DPW3cB8pryzDxTjk3-60" value="&lt;h2&gt;BODEGAS ID&lt;/h2&gt;&lt;div&gt;&lt;b&gt;(Instalación Domiciliaria)&lt;/b&gt;&lt;/div&gt;&lt;h2&gt;FLUJO REVERSA&lt;/h2&gt;" style="text;html=1;align=center;verticalAlign=middle;resizable=0;points=[];autosize=1;strokeColor=none;fillColor=none;shadow=1;" vertex="1" parent="1">
          <mxGeometry x="-1310" y="320" width="170" height="130" as="geometry" />
        </mxCell>
        <mxCell id="lB8DPW3cB8pryzDxTjk3-65" value="" style="edgeStyle=orthogonalEdgeStyle;rounded=0;orthogonalLoop=1;jettySize=auto;html=1;shadow=1;" edge="1" parent="1" source="lB8DPW3cB8pryzDxTjk3-62" target="lB8DPW3cB8pryzDxTjk3-64">
          <mxGeometry relative="1" as="geometry">
            <Array as="points">
              <mxPoint x="-1045" y="460" />
            </Array>
          </mxGeometry>
        </mxCell>
        <mxCell id="lB8DPW3cB8pryzDxTjk3-62" value="&lt;h2&gt;M06&lt;br&gt;&lt;span style=&quot;background-color: initial; font-size: 12px;&quot;&gt;INSTALADOS&lt;/span&gt;&lt;/h2&gt;&lt;div&gt;&lt;br&gt;&lt;/div&gt;" style="whiteSpace=wrap;html=1;shadow=1;" vertex="1" parent="1">
          <mxGeometry x="-1105" y="355" width="120" height="60" as="geometry" />
        </mxCell>
        <mxCell id="lB8DPW3cB8pryzDxTjk3-67" value="" style="edgeStyle=orthogonalEdgeStyle;rounded=0;orthogonalLoop=1;jettySize=auto;html=1;shadow=1;fontStyle=1" edge="1" parent="1" source="lB8DPW3cB8pryzDxTjk3-64" target="lB8DPW3cB8pryzDxTjk3-66">
          <mxGeometry relative="1" as="geometry" />
        </mxCell>
        <mxCell id="lB8DPW3cB8pryzDxTjk3-64" value="BODEGA RESERVA" style="whiteSpace=wrap;html=1;shadow=1;fontStyle=1" vertex="1" parent="1">
          <mxGeometry x="-970" y="430" width="230" height="50" as="geometry" />
        </mxCell>
        <mxCell id="lB8DPW3cB8pryzDxTjk3-66" value="FALLAS" style="whiteSpace=wrap;html=1;shadow=1;fontStyle=1" vertex="1" parent="1">
          <mxGeometry x="-915" y="550" width="120" height="40" as="geometry" />
        </mxCell>
        <mxCell id="lB8DPW3cB8pryzDxTjk3-70" value="" style="edgeStyle=orthogonalEdgeStyle;rounded=0;orthogonalLoop=1;jettySize=auto;html=1;shadow=1;fontStyle=1" edge="1" parent="1" source="lB8DPW3cB8pryzDxTjk3-68" target="lB8DPW3cB8pryzDxTjk3-64">
          <mxGeometry relative="1" as="geometry" />
        </mxCell>
        <mxCell id="lB8DPW3cB8pryzDxTjk3-68" value="ANALISIS&amp;nbsp;" style="whiteSpace=wrap;html=1;shadow=1;fontStyle=1" vertex="1" parent="1">
          <mxGeometry x="-1060" y="550" width="120" height="40" as="geometry" />
        </mxCell>
        <mxCell id="lB8DPW3cB8pryzDxTjk3-71" value="" style="edgeStyle=orthogonalEdgeStyle;rounded=0;orthogonalLoop=1;jettySize=auto;html=1;shadow=1;fontStyle=1" edge="1" parent="1" source="lB8DPW3cB8pryzDxTjk3-69" target="lB8DPW3cB8pryzDxTjk3-64">
          <mxGeometry relative="1" as="geometry" />
        </mxCell>
        <mxCell id="lB8DPW3cB8pryzDxTjk3-69" value="RETIROS" style="whiteSpace=wrap;html=1;shadow=1;fontStyle=1" vertex="1" parent="1">
          <mxGeometry x="-770" y="550" width="120" height="40" as="geometry" />
        </mxCell>
        <mxCell id="lB8DPW3cB8pryzDxTjk3-74" value="" style="edgeStyle=orthogonalEdgeStyle;rounded=0;orthogonalLoop=1;jettySize=auto;html=1;shadow=1;" edge="1" parent="1" source="lB8DPW3cB8pryzDxTjk3-72" target="lB8DPW3cB8pryzDxTjk3-68">
          <mxGeometry relative="1" as="geometry" />
        </mxCell>
        <mxCell id="lB8DPW3cB8pryzDxTjk3-72" value="&lt;h1 style=&quot;margin-top: 0px;&quot;&gt;&lt;span style=&quot;background-color: initial;&quot;&gt;ANALISIS.&lt;br&gt;&lt;/span&gt;&lt;/h1&gt;&lt;div&gt;&lt;span style=&quot;background-color: initial;&quot;&gt;En esta etapa el objeto se encuentrn&lt;/span&gt;&lt;/div&gt;" style="text;html=1;whiteSpace=wrap;overflow=hidden;rounded=0;shadow=1;" vertex="1" parent="1">
          <mxGeometry x="-1310" y="485" width="170" height="100" as="geometry" />
        </mxCell>
        <mxCell id="lB8DPW3cB8pryzDxTjk3-77" value="" style="shape=umlLifeline;perimeter=lifelinePerimeter;whiteSpace=wrap;html=1;container=1;dropTarget=0;collapsible=0;recursiveResize=0;outlineConnect=0;portConstraint=eastwest;newEdgeStyle={&quot;curved&quot;:0,&quot;rounded&quot;:0};participant=umlEntity;textShadow=1;" vertex="1" parent="1">
          <mxGeometry x="-1740" y="-190" width="40" height="270" as="geometry" />
        </mxCell>
        <mxCell id="lB8DPW3cB8pryzDxTjk3-78" value="" style="shape=umlLifeline;perimeter=lifelinePerimeter;whiteSpace=wrap;html=1;container=1;dropTarget=0;collapsible=0;recursiveResize=0;outlineConnect=0;portConstraint=eastwest;newEdgeStyle={&quot;curved&quot;:0,&quot;rounded&quot;:0};participant=umlEntity;textShadow=1;" vertex="1" parent="1">
          <mxGeometry x="-2110" y="-190" width="40" height="270" as="geometry" />
        </mxCell>
        <mxCell id="lB8DPW3cB8pryzDxTjk3-79" value="" style="line;strokeWidth=1;html=1;textShadow=0;whiteSpace=wrap;" vertex="1" parent="1">
          <mxGeometry x="-2155" y="-150" width="130" height="10" as="geometry" />
        </mxCell>
        <mxCell id="lB8DPW3cB8pryzDxTjk3-80" value="" style="line;strokeWidth=1;html=1;textShadow=1;whiteSpace=wrap;" vertex="1" parent="1">
          <mxGeometry x="-2142.5" y="-140" width="105" height="10" as="geometry" />
        </mxCell>
        <mxCell id="lB8DPW3cB8pryzDxTjk3-83" value="" style="line;strokeWidth=1;html=1;textShadow=0;whiteSpace=wrap;" vertex="1" parent="1">
          <mxGeometry x="-1784" y="-150" width="130" height="10" as="geometry" />
        </mxCell>
        <mxCell id="lB8DPW3cB8pryzDxTjk3-84" value="" style="line;strokeWidth=1;html=1;textShadow=1;whiteSpace=wrap;" vertex="1" parent="1">
          <mxGeometry x="-1771.5" y="-140" width="105" height="10" as="geometry" />
        </mxCell>
        <mxCell id="lB8DPW3cB8pryzDxTjk3-85" value="" style="line;strokeWidth=2;direction=south;html=1;textShadow=1;whiteSpace=wrap;" vertex="1" parent="1">
          <mxGeometry x="-2095" y="-150" width="10" height="230" as="geometry" />
        </mxCell>
        <mxCell id="lB8DPW3cB8pryzDxTjk3-86" value="" style="line;strokeWidth=2;direction=south;html=1;textShadow=1;whiteSpace=wrap;" vertex="1" parent="1">
          <mxGeometry x="-1725" y="-150" width="10" height="230" as="geometry" />
        </mxCell>
        <mxCell id="lB8DPW3cB8pryzDxTjk3-96" value="" style="curved=1;endArrow=none;html=1;rounded=0;exitX=0.504;exitY=0.546;exitDx=0;exitDy=0;exitPerimeter=0;entryX=0.023;entryY=0.488;entryDx=0;entryDy=0;entryPerimeter=0;endFill=0;textShadow=1;" edge="1" parent="1" source="lB8DPW3cB8pryzDxTjk3-79" target="lB8DPW3cB8pryzDxTjk3-86">
          <mxGeometry width="50" height="50" relative="1" as="geometry">
            <mxPoint x="-1670" y="10" as="sourcePoint" />
            <mxPoint x="-1620" y="-40" as="targetPoint" />
            <Array as="points">
              <mxPoint x="-2010" y="-110" />
              <mxPoint x="-1950" y="-100" />
              <mxPoint x="-1780" y="-110" />
            </Array>
          </mxGeometry>
        </mxCell>
        <mxCell id="lB8DPW3cB8pryzDxTjk3-97" value="" style="curved=1;endArrow=none;html=1;rounded=0;entryX=0.06;entryY=0.546;entryDx=0;entryDy=0;entryPerimeter=0;exitX=0.501;exitY=0.469;exitDx=0;exitDy=0;exitPerimeter=0;endFill=0;textShadow=1;" edge="1" parent="1" source="lB8DPW3cB8pryzDxTjk3-80" target="lB8DPW3cB8pryzDxTjk3-86">
          <mxGeometry width="50" height="50" relative="1" as="geometry">
            <mxPoint x="-2074" y="-132" as="sourcePoint" />
            <mxPoint x="-1722" y="-134" as="targetPoint" />
            <Array as="points">
              <mxPoint x="-2000" y="-100" />
              <mxPoint x="-1940" y="-90" />
              <mxPoint x="-1770" y="-100" />
            </Array>
          </mxGeometry>
        </mxCell>
        <mxCell id="lB8DPW3cB8pryzDxTjk3-169" value="" style="edgeStyle=orthogonalEdgeStyle;rounded=0;orthogonalLoop=1;jettySize=auto;html=1;textShadow=0;" edge="1" parent="1" source="lB8DPW3cB8pryzDxTjk3-140" target="lB8DPW3cB8pryzDxTjk3-85">
          <mxGeometry relative="1" as="geometry">
            <Array as="points">
              <mxPoint x="-2200" y="-135" />
              <mxPoint x="-2200" y="-35" />
            </Array>
          </mxGeometry>
        </mxCell>
        <mxCell id="lB8DPW3cB8pryzDxTjk3-140" value="&lt;h1 style=&quot;margin-top: 0px;&quot;&gt;HFC&amp;nbsp;&lt;/h1&gt;&lt;p&gt;&lt;font style=&quot;font-size: 12px;&quot;&gt;&lt;span style=&quot;color: rgb(17, 17, 17); font-family: Roboto, sans-serif; background-color: rgb(255, 255, 255);&quot;&gt;La red HFC, o&amp;nbsp;&lt;/span&gt;&lt;span style=&quot;font-weight: 700; background-color: rgba(16, 110, 190, 0.18); color: rgb(17, 17, 17); font-family: Roboto, sans-serif;&quot;&gt;Híbrido de fibra coaxial&lt;/span&gt;&lt;span style=&quot;color: rgb(17, 17, 17); font-family: Roboto, sans-serif; background-color: rgb(255, 255, 255);&quot;&gt;, es una tecnología de comunicación que combina fibra óptica y cable coaxial para ofrecer servicios de Internet de alta velocidad y televisión por cable&lt;/span&gt;a.&lt;/font&gt;&lt;/p&gt;" style="text;html=1;whiteSpace=wrap;overflow=hidden;rounded=0;textShadow=1;" vertex="1" parent="1">
          <mxGeometry x="-2440" y="-210" width="190" height="150" as="geometry" />
        </mxCell>
        <mxCell id="lB8DPW3cB8pryzDxTjk3-142" value="" style="shape=curlyBracket;whiteSpace=wrap;html=1;rounded=1;flipH=1;labelPosition=right;verticalLabelPosition=middle;align=left;verticalAlign=middle;size=0.5;textShadow=1;" vertex="1" parent="1">
          <mxGeometry x="-1650" y="-120" width="20" height="150" as="geometry" />
        </mxCell>
        <mxCell id="lB8DPW3cB8pryzDxTjk3-168" value="&lt;ol&gt;&lt;li&gt;&lt;span style=&quot;background-color: initial;&quot;&gt;PLATAN EXTERNA = PE - 000-000-0000&lt;/span&gt;&lt;br&gt;&lt;/li&gt;&lt;li&gt;PLANTA INTERNA = PI&amp;nbsp; -000-000-0000&lt;/li&gt;&lt;/ol&gt;" style="text;strokeColor=none;fillColor=none;html=1;whiteSpace=wrap;verticalAlign=middle;overflow=hidden;fontStyle=1;align=left;textShadow=0;" vertex="1" parent="1">
          <mxGeometry x="-1640" y="-82.5" width="280" height="75" as="geometry" />
        </mxCell>
        <mxCell id="lB8DPW3cB8pryzDxTjk3-172" value="" style="edgeStyle=orthogonalEdgeStyle;rounded=0;orthogonalLoop=1;jettySize=auto;html=1;" edge="1" parent="1" source="lB8DPW3cB8pryzDxTjk3-170" target="lB8DPW3cB8pryzDxTjk3-85">
          <mxGeometry relative="1" as="geometry">
            <Array as="points">
              <mxPoint x="-2200" y="65" />
              <mxPoint x="-2200" y="-35" />
            </Array>
          </mxGeometry>
        </mxCell>
        <mxCell id="lB8DPW3cB8pryzDxTjk3-170" value="&lt;h1 style=&quot;margin-top: 0px;&quot;&gt;FTTH&lt;/h1&gt;&lt;p&gt;&lt;font style=&quot;font-size: 12px;&quot;&gt;&lt;span style=&quot;color: rgb(17, 17, 17); font-family: Roboto, sans-serif; background-color: rgb(255, 255, 255);&quot;&gt;Las siglas FTTH corresponden a las palabras&amp;nbsp;&lt;/span&gt;&lt;span style=&quot;font-weight: 700; background-color: rgba(16, 110, 190, 0.18); color: rgb(17, 17, 17); font-family: Roboto, sans-serif;&quot;&gt;Fiber To The Home&lt;/span&gt;&lt;span style=&quot;color: rgb(17, 17, 17); font-family: Roboto, sans-serif; background-color: rgb(255, 255, 255);&quot;&gt;, que en español viene a ser “ fibra hasta la vivienda ”. Estas siglas son ampliamente extendidas hoy en día en lo referido al mundo de las comunicaciones, especialmente a internet&lt;/span&gt;&lt;/font&gt;&lt;span style=&quot;color: rgb(17, 17, 17); font-family: Roboto, sans-serif; font-size: 20px; background-color: rgb(255, 255, 255);&quot;&gt;.&lt;/span&gt;&lt;br&gt;&lt;/p&gt;" style="text;html=1;whiteSpace=wrap;overflow=hidden;rounded=0;textShadow=1;" vertex="1" parent="1">
          <mxGeometry x="-2440" y="-10" width="190" height="150" as="geometry" />
        </mxCell>
        <mxCell id="lB8DPW3cB8pryzDxTjk3-174" value="- RECEPTORES OPTICOS&lt;div&gt;- AMPLIFICADORES&amp;nbsp;&lt;/div&gt;&lt;div&gt;- OCT&lt;/div&gt;" style="text;html=1;align=left;verticalAlign=middle;resizable=0;points=[];autosize=1;strokeColor=none;fillColor=none;textShadow=1;" vertex="1" parent="1">
          <mxGeometry x="-2430" y="233" width="170" height="60" as="geometry" />
        </mxCell>
        <mxCell id="lB8DPW3cB8pryzDxTjk3-175" value="" style="shape=curlyBracket;whiteSpace=wrap;html=1;rounded=1;flipH=1;labelPosition=right;verticalLabelPosition=middle;align=left;verticalAlign=middle;size=0.5;textShadow=1;" vertex="1" parent="1">
          <mxGeometry x="-2250" y="225.5" width="20" height="75" as="geometry" />
        </mxCell>
        <mxCell id="lB8DPW3cB8pryzDxTjk3-176" value="&lt;div&gt;&lt;span style=&quot;background-color: initial;&quot;&gt;&lt;font style=&quot;&quot;&gt;&lt;u&gt;PE - PLANTA EXTERNA&amp;nbsp;&lt;/u&gt;&lt;/font&gt;&lt;/span&gt;&lt;/div&gt;&lt;div&gt;&lt;br&gt;&lt;/div&gt;&lt;div&gt;&lt;span style=&quot;font-size: 11px;&quot;&gt;ACTIVOS FIJOS&lt;/span&gt;&lt;/div&gt;" style="text;html=1;align=center;verticalAlign=middle;resizable=0;points=[];autosize=1;strokeColor=none;fillColor=none;fontStyle=1;textShadow=1;" vertex="1" parent="1">
          <mxGeometry x="-2170" y="230" width="160" height="60" as="geometry" />
        </mxCell>
      </root>
    </mxGraphModel>
  </diagram>
</mxfile>
